<svg xmlns="http://www.w3.org/2000/svg" viewBox="0 0 16 16">
  <!-- Document with subtle gradient -->
  <defs>
    <linearGradient id="docGrad16" x1="0%" y1="0%" x2="0%" y2="100%">
      <stop offset="0%" style="stop-color:#f8f9fa;stop-opacity:1" />
      <stop offset="100%" style="stop-color:#e9ecef;stop-opacity:1" />
    </linearGradient>
  </defs>

  <!-- Document -->
  <rect x="1.5" y="2" width="10" height="12" rx="1" fill="url(#docGrad16)" stroke="#495057" stroke-width="0.5"/>

  <!-- Document lines -->
  <line x1="3" y1="4.5" x2="10" y2="4.5" stroke="#adb5bd" stroke-width="0.5"/>
  <line x1="3" y1="6.5" x2="10" y2="6.5" stroke="#adb5bd" stroke-width="0.5"/>
  <line x1="3" y1="8.5" x2="8" y2="8.5" stroke="#adb5bd" stroke-width="0.5"/>

  <!-- Quill feather -->
  <path d="M 11 14 L 12 10 Q 12.5 8 13.5 7 Q 14 6.5 14.5 6 Q 14.8 5.5 14.5 5 Q 14.2 4.5 13.8 5 L 12.5 7.5 L 12 10 L 11.5 12"
        fill="#8b4513" stroke="#654321" stroke-width="0.4"/>

  <!-- Quill tip -->
  <path d="M 11 14 L 11.5 13 L 12 13.2 Z" fill="#2c1810"/>

  <!-- Signature line on document -->
  <path d="M 3.5 11 Q 4.5 10.5 5.5 11 Q 6.5 11.5 7.5 11" stroke="#1864ab" stroke-width="0.6" fill="none" stroke-linecap="round"/>
</svg>
