<?xml version="1.0" encoding="iso-8859-1"?>
<!-- Uploaded to: SVG Repo, www.svgrepo.com, Generator: SVG Repo Mixer Tools -->
<svg height="800px" width="800px" version="1.1" id="Layer_1" xmlns="http://www.w3.org/2000/svg" xmlns:xlink="http://www.w3.org/1999/xlink" 
	 viewBox="0 0 491.521 491.521" xml:space="preserve">
<polygon style="fill:#3A556A;" points="314.147,339.386 152.136,177.375 287.611,0.001 491.521,203.911 "/>
<polygon style="fill:#2F4859;" points="452.292,185.593 313.918,291.281 185.096,162.46 177.767,172.056 312.923,307.211 
	460.894,194.194 "/>
<polygon style="fill:#FCD462;" points="180.552,205.79 161.697,215.27 47.982,272.445 0,491.521 219.077,443.538 276.251,329.825 
	285.732,310.97 "/>
<g>
	<path style="fill:#F6C358;" d="M13.604,488.541l115.93-115.93c8.69,4.253,19.443,2.865,26.666-4.358
		c9.094-9.094,9.095-23.839,0.001-32.933c-9.094-9.094-23.839-9.093-32.933,0.001c-7.223,7.224-8.611,17.977-4.358,26.666
		L2.979,477.916L0,491.521L13.604,488.541z"/>
	<polygon style="fill:#F6C358;" points="180.551,205.79 161.696,215.27 276.251,329.826 285.732,310.97 	"/>
</g>
</svg>